<?xml version="1.0" encoding="iso-8859-1"?>
<!-- Generator: Adobe Illustrator 18.0.0, SVG Export Plug-In . SVG Version: 6.00 Build 0)  -->
<!DOCTYPE svg PUBLIC "-//W3C//DTD SVG 1.1//EN" "http://www.w3.org/Graphics/SVG/1.1/DTD/svg11.dtd">
<svg version="1.1" id="Capa_1" xmlns="http://www.w3.org/2000/svg" xmlns:xlink="http://www.w3.org/1999/xlink" x="0px" y="0px"
	 viewBox="0 0 297 297" style="enable-background:new 0 0 297 297;" xml:space="preserve">
<path d="M241.583,0c-11.046,0-20,8.954-20,20v52.416c0,33.364-22.48,61.556-53.083,70.279V40h3c11.046,0,20-8.954,20-20
	s-8.954-20-20-20h-46c-11.046,0-20,8.954-20,20s8.954,20,20,20h3v102.695c-30.603-8.722-53.084-36.915-53.084-70.279V20
	c0-11.046-8.954-20-20-20s-20,8.954-20,20v52.416c0,55.532,40.235,101.843,93.084,111.313V257h-3c-11.046,0-20,8.954-20,20
	s8.954,20,20,20h46c11.046,0,20-8.954,20-20s-8.954-20-20-20h-3v-73.271c52.848-9.471,93.083-55.782,93.083-111.313V20
	C261.583,8.954,252.629,0,241.583,0z"/>
<g>
</g>
<g>
</g>
<g>
</g>
<g>
</g>
<g>
</g>
<g>
</g>
<g>
</g>
<g>
</g>
<g>
</g>
<g>
</g>
<g>
</g>
<g>
</g>
<g>
</g>
<g>
</g>
<g>
</g>
</svg>
